<svg version="1.1" id="Layer_1" xmlns="http://www.w3.org/2000/svg" xmlns:xlink="http://www.w3.org/1999/xlink" x="0px" y="0px"
	 width="100%" viewBox="0 0 1076 1073" enable-background="new 0 0 1076 1073" xml:space="preserve">
<path fill="#000001" opacity="1.000000" stroke="none" 
	d="
M703.000000,1074.000000 
	C468.693787,1074.000000 234.887573,1074.000000 1.040684,1074.000000 
	C1.040684,716.401917 1.040684,358.803894 1.040684,1.102913 
	C359.556396,1.102913 718.112854,1.102913 1076.834717,1.102913 
	C1076.834717,358.666595 1076.834717,716.333313 1076.834717,1074.000000 
	C952.470154,1074.000000 827.985046,1074.000000 703.000000,1074.000000 
M578.810486,245.739944 
	C539.946411,233.533524 502.571960,237.160477 467.933685,258.550903 
	C424.600037,285.311035 403.474518,325.176025 402.634735,376.024078 
	C394.949799,377.013336 387.984833,379.363342 382.510712,385.083893 
	C374.065125,393.909668 371.798553,405.012970 372.153076,416.460419 
	C373.096191,446.913391 374.590729,477.351257 376.140472,507.781158 
	C376.345825,511.813751 377.604828,516.040039 379.433777,519.639099 
	C380.360474,521.462646 383.711639,523.073608 385.850739,522.938965 
	C387.562134,522.831238 389.983673,520.178467 390.504974,518.230957 
	C391.287964,515.305847 390.879364,511.994080 390.628906,508.874634 
	C390.156982,502.996735 389.436584,497.138763 388.815399,491.233795 
	C396.861694,490.977631 396.853119,490.978699 397.739838,498.105255 
	C398.808075,506.690948 399.737030,515.298157 401.031586,523.849854 
	C401.749390,528.591187 402.589050,533.428772 404.280914,537.877991 
	C406.255798,543.071472 412.510529,545.536255 417.606567,543.998474 
	C421.868469,542.712402 423.578003,538.699707 422.654846,532.434937 
	C422.193939,529.307007 421.881836,526.156067 421.546783,523.010803 
	C420.400818,512.253052 419.222168,501.498322 418.173676,490.730988 
	C417.872467,487.637787 418.909180,484.600800 422.343597,484.449554 
	C425.527802,484.309296 428.603516,485.751801 429.157867,489.653992 
	C429.508728,492.123749 429.653503,494.622528 429.899689,497.107391 
	C431.572449,513.991882 433.091400,530.894653 435.089417,547.740662 
	C435.391083,550.284119 437.365356,553.565491 439.533447,554.783630 
	C447.433014,559.222046 456.032379,553.761108 455.969330,544.805908 
	C455.959930,543.473083 455.964081,542.138794 455.903870,540.807861 
	C455.083252,522.680115 454.228668,504.553802 453.479584,486.423157 
	C453.432007,485.271423 453.916687,483.340820 454.625824,483.085999 
	C455.790100,482.667542 458.037842,482.840973 458.587738,483.629852 
	C459.811859,485.386017 460.835632,487.647430 460.946136,489.755035 
	C461.686493,503.880341 461.831268,518.043518 462.853394,532.144836 
	C463.483276,540.834473 469.178986,543.889160 477.315033,540.646729 
	C483.061035,538.356812 486.736694,533.897522 486.859650,527.744873 
	C487.235260,508.945770 487.391541,490.134827 487.152374,471.334564 
	C487.057831,463.902710 485.695740,456.487030 484.910797,449.063965 
	C489.481201,454.144379 493.387695,459.467163 497.113159,464.913788 
	C499.508759,468.416107 502.523682,470.277405 506.793182,469.236847 
	C511.092957,468.188904 513.689941,464.974915 513.264648,460.902161 
	C512.604614,454.581055 511.810028,447.955811 509.338898,442.204346 
	C503.085632,427.650085 492.584412,415.903046 482.062592,404.269104 
	C480.552887,402.599823 478.891907,400.677032 478.341644,398.596375 
	C475.623932,388.319763 469.157623,381.376129 459.692810,377.189453 
	C456.660278,375.848083 455.622131,374.368591 455.641357,370.984467 
	C455.943329,317.830841 511.208649,278.262909 561.976257,295.516418 
	C573.647644,299.482971 584.548828,305.804016 595.641174,311.367065 
	C617.788818,322.474670 639.822876,333.808807 661.905334,345.046417 
	C663.994507,346.109589 666.094116,347.152039 668.188904,348.204102 
	C656.987671,297.746552 628.136597,263.207397 578.810486,245.739944 
M372.441345,643.067810 
	C419.643585,671.698853 467.427948,672.402222 515.941895,645.802490 
	C520.411316,653.097595 526.770569,657.655945 535.183411,658.800781 
	C543.741760,659.965332 552.339294,659.711670 559.890869,655.019897 
	C588.148743,637.463318 616.334106,619.786987 644.346436,601.842896 
	C647.635132,599.736206 650.443481,596.047363 652.121704,592.459229 
	C654.491150,587.393311 650.743774,583.380737 645.266357,584.860229 
	C642.340820,585.650452 639.612976,587.509644 637.058838,589.268188 
	C631.580017,593.040344 626.350037,597.176514 620.833923,600.889893 
	C619.581116,601.733337 617.578430,601.462891 615.920898,601.705139 
	C615.777222,599.638428 615.297241,597.515625 615.628540,595.528076 
	C615.800293,594.498108 617.322083,593.586304 618.382507,592.829285 
	C623.664978,589.058533 629.262329,585.677795 634.246887,581.553162 
	C641.126709,575.860291 648.014832,570.043152 654.022400,563.476807 
	C658.151001,558.964355 657.098022,551.802673 653.284546,548.467468 
	C649.946716,545.548279 645.882019,546.308960 640.268127,550.467896 
	C629.307007,558.588318 618.250427,566.580200 607.211426,574.595032 
	C604.721191,576.403015 601.852905,577.491760 599.794556,574.400757 
	C597.914551,571.577393 597.933533,568.377930 600.819275,565.863525 
	C601.690491,565.104370 602.717957,564.526123 603.662048,563.848572 
	C618.401428,553.270447 633.200195,542.773376 647.844299,532.064880 
	C653.109314,528.214783 653.595886,523.978271 650.070129,518.744629 
	C645.778564,512.374207 641.633240,511.084900 635.857178,514.595703 
	C626.761414,520.124329 617.698669,525.710876 608.713806,531.417603 
	C600.038391,536.927673 591.479370,542.620789 582.888184,548.221191 
	C579.586304,543.414551 579.870056,541.403687 584.470703,538.506226 
	C596.156433,531.146484 608.020203,524.067383 619.652893,516.626099 
	C628.028015,511.268707 627.419128,501.907990 618.596863,497.314087 
	C613.692993,494.760559 608.809875,494.732666 603.814392,497.347687 
	C582.037537,508.747345 560.251038,520.120483 539.669861,536.304993 
	C539.872009,533.634521 539.637085,531.978577 540.170654,530.625610 
	C541.511047,527.226807 543.073853,523.899170 544.777588,520.664185 
	C547.086121,516.281067 547.820068,511.930084 543.750977,508.385468 
	C539.809998,504.952484 535.004822,505.656219 531.200867,508.345428 
	C527.196472,511.176300 523.420471,514.687561 520.482605,518.604919 
	C510.232178,532.272705 505.254272,548.413452 499.913452,564.352844 
	C499.404327,565.872131 498.790588,567.576294 497.690369,568.642395 
	C489.786163,576.301575 486.939301,585.755310 488.184235,596.370361 
	C488.608612,599.988770 487.205444,601.432129 484.503265,602.817749 
	C469.472961,610.525208 453.725342,613.909363 436.742126,612.133789 
	C403.082397,608.614807 372.252747,581.254517 366.199707,547.940735 
	C364.050934,536.114807 363.849152,523.910583 363.114136,511.857330 
	C361.594299,486.933899 360.313141,461.995911 358.933624,437.063904 
	C358.801086,434.668884 358.667450,432.273926 358.507324,429.392944 
	C293.311859,484.091858 295.332306,591.941528 372.441345,643.067810 
M593.103027,349.526794 
	C580.773987,344.573669 568.507874,339.451904 556.064270,334.805542 
	C553.483704,333.841949 550.113770,334.094818 547.338318,334.755798 
	C542.869141,335.820160 540.548584,339.322021 539.952637,343.805756 
	C539.372559,348.169525 542.450989,349.963928 545.728760,351.530640 
	C547.380432,352.320099 549.015991,353.145813 550.687927,353.889679 
	C562.235962,359.027710 573.856140,364.011963 585.279846,369.412140 
	C587.136292,370.289673 589.416382,373.164581 589.188538,374.792633 
	C588.929565,376.643158 586.309326,378.642548 584.259338,379.584290 
	C583.019592,380.153839 580.816467,379.055511 579.212158,378.336273 
	C562.218018,370.718079 545.325256,362.869476 528.251953,355.434784 
	C521.971863,352.700073 517.794861,354.858826 515.119141,361.075470 
	C512.355591,367.496094 513.657837,371.466461 519.730591,374.684967 
	C536.198242,383.412537 552.693054,392.088623 569.164795,400.808441 
	C571.036194,401.799103 572.828979,402.938416 574.760376,404.068573 
	C572.702698,408.657745 569.987061,409.576752 565.866760,407.332458 
	C553.449036,400.568634 540.962646,393.930481 528.483093,387.280792 
	C521.660156,383.645203 515.059998,386.331421 513.363892,393.683594 
	C511.968018,399.734283 512.781311,405.757507 518.293640,409.345978 
	C539.473389,423.133911 560.399353,437.439270 584.462769,446.055206 
	C585.977783,446.597687 587.420471,447.342194 588.896851,447.992676 
	C582.027283,449.419952 575.575745,450.179657 569.102112,450.601746 
	C564.947815,450.872559 561.297241,451.970337 560.056580,456.230743 
	C558.637207,461.105133 560.371521,465.690277 564.897644,467.636536 
	C570.583679,470.081604 576.728149,472.264709 582.827148,472.789154 
	C598.718201,474.155579 614.316589,471.311218 629.751526,467.627380 
	C631.317444,467.253693 633.128662,466.944733 634.616150,467.359070 
	C645.514832,470.394958 655.419495,468.354370 664.275391,461.554291 
	C666.666138,459.718506 668.232117,460.266022 670.430420,461.575867 
	C721.710999,492.131348 722.291687,569.012329 671.489319,600.275940 
	C664.453857,604.605530 657.669800,609.342529 650.746643,613.856079 
	C631.927490,626.125427 613.099609,638.381531 594.266113,650.628845 
	C590.831360,652.862488 587.353394,655.029785 583.566833,657.436523 
	C632.407593,676.399292 703.100342,662.528870 741.162292,603.015442 
	C758.602600,575.745972 765.148804,545.691101 760.725952,513.771179 
	C754.580078,469.416565 731.134583,436.226959 693.263794,413.886932 
	C694.289856,409.679138 695.821106,406.030762 695.967651,402.327606 
	C696.507629,388.683411 690.728821,377.402069 679.132446,370.948364 
	C649.361572,354.380035 619.067139,338.746460 588.829285,323.033081 
	C585.829346,321.474091 581.661499,321.139465 578.244507,321.645569 
	C573.119568,322.404694 571.654846,327.015656 575.080627,330.980865 
	C576.836304,333.012970 579.486938,334.432800 581.969543,335.644897 
	C588.686096,338.924133 595.601929,341.797943 602.293396,345.124756 
	C605.938293,346.936920 605.950623,349.641846 602.121582,350.825378 
	C599.692932,351.576080 596.609009,350.206970 593.103027,349.526794 
M408.088501,778.572327 
	C408.088501,775.364197 408.088501,772.156128 408.088501,767.736633 
	C417.772888,779.506653 427.126129,789.745361 435.097687,800.965637 
	C440.278259,808.257446 446.269012,809.124756 453.808014,807.571533 
	C453.808014,785.421692 453.808014,763.367615 453.808014,741.235229 
	C448.625977,741.235229 443.737640,741.235229 438.596985,741.235229 
	C438.596985,754.301086 438.596985,767.044556 438.596985,780.794067 
	C436.919983,778.938782 435.804474,777.803528 434.799866,776.577393 
	C426.999664,767.056580 418.614929,757.937317 411.636536,747.846313 
	C406.512543,740.436829 400.297760,740.204834 392.895264,741.269958 
	C392.895264,763.612000 392.895264,785.681702 392.895264,807.791016 
	C398.068085,807.791016 402.980194,807.791016 408.090271,807.791016 
	C408.090271,798.160522 408.090271,788.855774 408.088501,778.572327 
M361.667297,766.010986 
	C361.667297,770.617798 361.667297,775.224609 361.667297,781.094055 
	C359.797760,778.942993 358.622528,777.658325 357.521484,776.313049 
	C349.834656,766.920837 341.553772,757.936096 334.688019,747.976440 
	C329.595612,740.589294 323.448608,740.029907 315.899231,741.344421 
	C315.899231,763.551392 315.899231,785.617554 315.899231,807.809082 
	C321.044403,807.809082 325.956451,807.809082 331.232483,807.809082 
	C331.232483,794.642456 331.232483,781.786926 331.232483,767.812317 
	C340.847900,779.559326 350.324951,790.055176 358.480743,801.493103 
	C363.660858,808.757874 369.709259,808.771973 376.768616,807.631775 
	C376.768616,785.275879 376.768616,763.236084 376.768616,741.283569 
	C371.519440,741.283569 366.621643,741.283569 361.668579,741.283569 
	C361.668579,749.488953 361.668579,757.312744 361.667297,766.010986 
M244.688812,747.131836 
	C230.613480,759.042419 227.212433,777.218506 236.220154,792.390381 
	C244.042435,805.565491 260.181519,811.676270 277.685852,808.090698 
	C291.465820,805.268005 302.063751,794.094238 304.094147,780.247559 
	C306.343140,764.910156 300.005737,751.116882 286.982178,744.548462 
	C272.813965,737.402649 258.770355,738.161316 244.688812,747.131836 
M672.512329,740.901672 
	C668.738098,740.901672 664.963928,740.901672 661.216858,740.901672 
	C661.216858,763.604004 661.216858,785.794495 661.216858,807.749756 
	C666.455505,807.749756 671.359558,807.749756 676.717163,807.749756 
	C676.717163,801.649658 676.717163,795.900574 676.717163,789.155518 
	C683.448059,789.155518 689.773071,789.654663 695.991882,789.053833 
	C709.900940,787.710022 718.146790,778.921448 718.609375,765.732605 
	C719.051819,753.117615 711.174377,743.706482 697.403320,741.797974 
	C689.547607,740.709229 681.479858,741.149780 672.512329,740.901672 
M829.910583,750.534851 
	C829.731750,761.672119 830.120239,772.857178 829.186279,783.930725 
	C828.496338,792.110168 823.522400,795.772217 815.876831,795.906677 
	C808.074951,796.043762 803.293518,792.172363 801.686707,784.134583 
	C801.202820,781.714172 801.132629,779.182739 801.121033,776.700989 
	C801.065796,764.934387 801.096313,753.167480 801.096313,741.154175 
	C795.675964,741.154175 790.769409,741.154175 785.727051,741.154175 
	C785.727051,755.099182 785.219788,768.886292 785.862183,782.619507 
	C786.580017,797.965576 795.081055,806.561523 810.209900,808.843140 
	C828.248047,811.563599 843.072083,802.304871 844.601685,785.518005 
	C845.936584,770.868347 844.879944,756.000793 844.879944,741.261963 
	C840.008545,741.261963 835.109802,741.261963 829.911194,741.261963 
	C829.911194,744.259216 829.911194,746.902527 829.910583,750.534851 
M469.921112,751.519714 
	C469.921112,770.266357 469.921112,789.013062 469.921112,807.741211 
	C487.507751,807.741211 504.400177,807.741211 521.291504,807.741211 
	C521.291504,803.610901 521.291504,799.863647 521.291504,795.647949 
	C509.232452,795.647949 497.484863,795.647949 485.590973,795.647949 
	C485.590973,790.264832 485.590973,785.357788 485.590973,779.877563 
	C495.889282,779.877563 505.942474,779.877563 515.761780,779.877563 
	C515.761780,775.549744 515.761780,771.801514 515.761780,767.719604 
	C505.501099,767.719604 495.577454,767.719604 485.630920,767.719604 
	C485.630920,762.806580 485.630920,758.249634 485.630920,753.161255 
	C497.364655,753.161255 508.747314,753.161255 520.068604,753.161255 
	C520.068604,748.866821 520.068604,745.116150 520.068604,741.251282 
	C503.240631,741.251282 486.681946,741.251282 469.925873,741.251282 
	C469.925873,744.572693 469.925873,747.550842 469.921112,751.519714 
M891.652100,808.252747 
	C894.193542,807.498230 896.855896,807.014221 899.255127,805.941528 
	C908.773132,801.686401 913.336243,791.771606 910.171448,782.530457 
	C907.870361,775.811218 902.284912,772.879272 896.119019,770.945618 
	C889.946472,769.009705 883.519165,767.836426 877.451782,765.642517 
	C875.376953,764.892334 872.673157,762.011292 872.742310,760.198669 
	C872.825500,758.018066 875.135010,754.972961 877.246399,754.045776 
	C880.271484,752.717529 884.100098,752.223511 887.387024,752.711426 
	C892.865479,753.524719 898.186523,755.398560 903.889893,756.909668 
	C905.256958,753.432495 906.735901,749.670593 908.296753,745.700439 
	C895.690125,739.226868 883.111877,738.005737 870.207397,742.456604 
	C861.527222,745.450439 856.914551,752.308289 856.913940,761.029236 
	C856.913391,769.164307 860.919983,774.644836 869.903442,777.944397 
	C874.409485,779.599548 879.188599,780.498901 883.808777,781.860291 
	C886.660156,782.700439 889.670959,783.370544 892.210571,784.818115 
	C896.958862,787.524414 896.820129,792.712769 891.779480,794.691650 
	C888.357361,796.035339 884.219849,796.875244 880.671021,796.295349 
	C873.909119,795.190552 867.339478,792.908875 860.181335,790.978699 
	C858.909485,793.845825 857.265320,797.552185 855.497742,801.536804 
	C866.666870,808.373230 878.393250,810.072266 891.652100,808.252747 
M578.258545,742.108948 
	C576.158997,741.595947 574.079163,740.975342 571.956848,740.586426 
	C547.382141,736.083557 524.748474,753.340698 528.918335,780.828003 
	C532.131531,802.009094 555.834595,814.938660 577.924133,806.815796 
	C583.017578,804.942810 587.467224,801.318909 592.938049,798.070251 
	C588.588684,794.028625 585.376099,791.043335 582.210327,788.101624 
	C570.667725,797.820251 558.880859,798.375977 550.104553,789.926575 
	C542.716919,782.814148 541.643005,768.372437 548.915649,760.759888 
	C552.242188,757.278015 557.318665,754.650574 562.052307,753.515015 
	C569.848633,751.644897 576.625244,755.163391 582.059570,761.043762 
	C585.607788,757.838196 588.766418,754.984558 592.946838,751.207886 
	C587.796814,747.976746 583.382629,745.207214 578.258545,742.108948 
M167.014740,790.455505 
	C179.497162,815.471924 216.498199,812.915283 226.697845,796.844604 
	C223.490952,793.917725 220.232101,790.943420 217.000702,787.994202 
	C215.951950,788.944824 215.339188,789.508118 214.718140,790.062134 
	C206.280045,797.588196 194.092224,797.884521 186.059067,790.760254 
	C177.969406,783.585938 176.713226,770.210510 183.285065,761.224243 
	C189.318237,752.974548 201.660690,750.673096 211.131134,756.042542 
	C213.353928,757.302734 215.778198,759.888123 217.710922,759.554260 
	C220.129196,759.136597 222.123260,756.318604 224.325912,754.568726 
	C225.219681,753.858643 226.180374,753.232788 227.002716,752.645630 
	C217.450104,739.202332 195.727829,735.878052 179.946030,744.883240 
	C164.762772,753.546997 159.193848,772.427429 167.014740,790.455505 
M640.501099,753.627686 
	C644.283997,753.627686 648.066895,753.627686 652.085938,753.627686 
	C652.085938,749.209656 652.085938,745.272461 652.085938,741.195007 
	C632.710083,741.195007 613.483826,741.195007 594.292969,741.195007 
	C594.292969,745.414612 594.292969,749.323059 594.292969,753.874573 
	C601.454163,753.874573 608.332703,753.874573 615.567078,753.874573 
	C615.567078,772.287170 615.567078,790.047974 615.567078,807.721069 
	C621.022522,807.721069 626.073669,807.721069 631.349792,807.721069 
	C631.349792,789.547729 631.349792,771.763855 631.349792,753.633118 
	C634.242126,753.633118 636.878540,753.633118 640.501099,753.627686 
M777.215698,808.059937 
	C778.043335,804.038025 778.871033,800.016052 779.829590,795.358154 
	C767.730896,795.358154 756.981689,795.358154 745.709106,795.358154 
	C745.709106,777.020813 745.709106,759.123901 745.709106,741.220764 
	C740.117859,741.220764 735.065796,741.220764 730.128296,741.220764 
	C730.128296,763.633301 730.128296,785.706482 730.128296,808.035522 
	C745.664917,808.035522 760.963989,808.035522 777.215698,808.059937 
z"/>
<path fill="#FBFBFC" opacity="1.000000" stroke="none" 
	d="
M579.198242,245.830017 
	C628.136597,263.207397 656.987671,297.746552 668.188904,348.204102 
	C666.094116,347.152039 663.994507,346.109589 661.905334,345.046417 
	C639.822876,333.808807 617.788818,322.474670 595.641174,311.367065 
	C584.548828,305.804016 573.647644,299.482971 561.976257,295.516418 
	C511.208649,278.262909 455.943329,317.830841 455.641357,370.984467 
	C455.622131,374.368591 456.660278,375.848083 459.692810,377.189453 
	C469.157623,381.376129 475.623932,388.319763 478.341644,398.596375 
	C478.891907,400.677032 480.552887,402.599823 482.062592,404.269104 
	C492.584412,415.903046 503.085632,427.650085 509.338898,442.204346 
	C511.810028,447.955811 512.604614,454.581055 513.264648,460.902161 
	C513.689941,464.974915 511.092957,468.188904 506.793182,469.236847 
	C502.523682,470.277405 499.508759,468.416107 497.113159,464.913788 
	C493.387695,459.467163 489.481201,454.144379 484.910797,449.063965 
	C485.695740,456.487030 487.057831,463.902710 487.152374,471.334564 
	C487.391541,490.134827 487.235260,508.945770 486.859650,527.744873 
	C486.736694,533.897522 483.061035,538.356812 477.315033,540.646729 
	C469.178986,543.889160 463.483276,540.834473 462.853394,532.144836 
	C461.831268,518.043518 461.686493,503.880341 460.946136,489.755035 
	C460.835632,487.647430 459.811859,485.386017 458.587738,483.629852 
	C458.037842,482.840973 455.790100,482.667542 454.625824,483.085999 
	C453.916687,483.340820 453.432007,485.271423 453.479584,486.423157 
	C454.228668,504.553802 455.083252,522.680115 455.903870,540.807861 
	C455.964081,542.138794 455.959930,543.473083 455.969330,544.805908 
	C456.032379,553.761108 447.433014,559.222046 439.533447,554.783630 
	C437.365356,553.565491 435.391083,550.284119 435.089417,547.740662 
	C433.091400,530.894653 431.572449,513.991882 429.899689,497.107391 
	C429.653503,494.622528 429.508728,492.123749 429.157867,489.653992 
	C428.603516,485.751801 425.527802,484.309296 422.343597,484.449554 
	C418.909180,484.600800 417.872467,487.637787 418.173676,490.730988 
	C419.222168,501.498322 420.400818,512.253052 421.546783,523.010803 
	C421.881836,526.156067 422.193939,529.307007 422.654846,532.434937 
	C423.578003,538.699707 421.868469,542.712402 417.606567,543.998474 
	C412.510529,545.536255 406.255798,543.071472 404.280914,537.877991 
	C402.589050,533.428772 401.749390,528.591187 401.031586,523.849854 
	C399.737030,515.298157 398.808075,506.690948 397.739838,498.105255 
	C396.853119,490.978699 396.861694,490.977631 388.815399,491.233795 
	C389.436584,497.138763 390.156982,502.996735 390.628906,508.874634 
	C390.879364,511.994080 391.287964,515.305847 390.504974,518.230957 
	C389.983673,520.178467 387.562134,522.831238 385.850739,522.938965 
	C383.711639,523.073608 380.360474,521.462646 379.433777,519.639099 
	C377.604828,516.040039 376.345825,511.813751 376.140472,507.781158 
	C374.590729,477.351257 373.096191,446.913391 372.153076,416.460419 
	C371.798553,405.012970 374.065125,393.909668 382.510712,385.083893 
	C387.984833,379.363342 394.949799,377.013336 402.634735,376.024078 
	C403.474518,325.176025 424.600037,285.311035 467.933685,258.550903 
	C502.571960,237.160477 539.946411,233.533524 579.198242,245.830017 
z"/>
<path fill="#FBFBFC" opacity="1.000000" stroke="none" 
	d="
M372.149933,642.854004 
	C295.332306,591.941528 293.311859,484.091858 358.507324,429.392944 
	C358.667450,432.273926 358.801086,434.668884 358.933624,437.063904 
	C360.313141,461.995911 361.594299,486.933899 363.114136,511.857330 
	C363.849152,523.910583 364.050934,536.114807 366.199707,547.940735 
	C372.252747,581.254517 403.082397,608.614807 436.742126,612.133789 
	C453.725342,613.909363 469.472961,610.525208 484.503265,602.817749 
	C487.205444,601.432129 488.608612,599.988770 488.184235,596.370361 
	C486.939301,585.755310 489.786163,576.301575 497.690369,568.642395 
	C498.790588,567.576294 499.404327,565.872131 499.913452,564.352844 
	C505.254272,548.413452 510.232178,532.272705 520.482605,518.604919 
	C523.420471,514.687561 527.196472,511.176300 531.200867,508.345428 
	C535.004822,505.656219 539.809998,504.952484 543.750977,508.385468 
	C547.820068,511.930084 547.086121,516.281067 544.777588,520.664185 
	C543.073853,523.899170 541.511047,527.226807 540.170654,530.625610 
	C539.637085,531.978577 539.872009,533.634521 539.669861,536.304993 
	C560.251038,520.120483 582.037537,508.747345 603.814392,497.347687 
	C608.809875,494.732666 613.692993,494.760559 618.596863,497.314087 
	C627.419128,501.907990 628.028015,511.268707 619.652893,516.626099 
	C608.020203,524.067383 596.156433,531.146484 584.470703,538.506226 
	C579.870056,541.403687 579.586304,543.414551 582.888184,548.221191 
	C591.479370,542.620789 600.038391,536.927673 608.713806,531.417603 
	C617.698669,525.710876 626.761414,520.124329 635.857178,514.595703 
	C641.633240,511.084900 645.778564,512.374207 650.070129,518.744629 
	C653.595886,523.978271 653.109314,528.214783 647.844299,532.064880 
	C633.200195,542.773376 618.401428,553.270447 603.662048,563.848572 
	C602.717957,564.526123 601.690491,565.104370 600.819275,565.863525 
	C597.933533,568.377930 597.914551,571.577393 599.794556,574.400757 
	C601.852905,577.491760 604.721191,576.403015 607.211426,574.595032 
	C618.250427,566.580200 629.307007,558.588318 640.268127,550.467896 
	C645.882019,546.308960 649.946716,545.548279 653.284546,548.467468 
	C657.098022,551.802673 658.151001,558.964355 654.022400,563.476807 
	C648.014832,570.043152 641.126709,575.860291 634.246887,581.553162 
	C629.262329,585.677795 623.664978,589.058533 618.382507,592.829285 
	C617.322083,593.586304 615.800293,594.498108 615.628540,595.528076 
	C615.297241,597.515625 615.777222,599.638428 615.920898,601.705139 
	C617.578430,601.462891 619.581116,601.733337 620.833923,600.889893 
	C626.350037,597.176514 631.580017,593.040344 637.058838,589.268188 
	C639.612976,587.509644 642.340820,585.650452 645.266357,584.860229 
	C650.743774,583.380737 654.491150,587.393311 652.121704,592.459229 
	C650.443481,596.047363 647.635132,599.736206 644.346436,601.842896 
	C616.334106,619.786987 588.148743,637.463318 559.890869,655.019897 
	C552.339294,659.711670 543.741760,659.965332 535.183411,658.800781 
	C526.770569,657.655945 520.411316,653.097595 515.941895,645.802490 
	C467.427948,672.402222 419.643585,671.698853 372.149933,642.854004 
z"/>
<path fill="#FBFBFC" opacity="1.000000" stroke="none" 
	d="
M593.460999,349.657654 
	C596.609009,350.206970 599.692932,351.576080 602.121582,350.825378 
	C605.950623,349.641846 605.938293,346.936920 602.293396,345.124756 
	C595.601929,341.797943 588.686096,338.924133 581.969543,335.644897 
	C579.486938,334.432800 576.836304,333.012970 575.080627,330.980865 
	C571.654846,327.015656 573.119568,322.404694 578.244507,321.645569 
	C581.661499,321.139465 585.829346,321.474091 588.829285,323.033081 
	C619.067139,338.746460 649.361572,354.380035 679.132446,370.948364 
	C690.728821,377.402069 696.507629,388.683411 695.967651,402.327606 
	C695.821106,406.030762 694.289856,409.679138 693.263794,413.886932 
	C731.134583,436.226959 754.580078,469.416565 760.725952,513.771179 
	C765.148804,545.691101 758.602600,575.745972 741.162292,603.015442 
	C703.100342,662.528870 632.407593,676.399292 583.566833,657.436523 
	C587.353394,655.029785 590.831360,652.862488 594.266113,650.628845 
	C613.099609,638.381531 631.927490,626.125427 650.746643,613.856079 
	C657.669800,609.342529 664.453857,604.605530 671.489319,600.275940 
	C722.291687,569.012329 721.710999,492.131348 670.430420,461.575867 
	C668.232117,460.266022 666.666138,459.718506 664.275391,461.554291 
	C655.419495,468.354370 645.514832,470.394958 634.616150,467.359070 
	C633.128662,466.944733 631.317444,467.253693 629.751526,467.627380 
	C614.316589,471.311218 598.718201,474.155579 582.827148,472.789154 
	C576.728149,472.264709 570.583679,470.081604 564.897644,467.636536 
	C560.371521,465.690277 558.637207,461.105133 560.056580,456.230743 
	C561.297241,451.970337 564.947815,450.872559 569.102112,450.601746 
	C575.575745,450.179657 582.027283,449.419952 588.896851,447.992676 
	C587.420471,447.342194 585.977783,446.597687 584.462769,446.055206 
	C560.399353,437.439270 539.473389,423.133911 518.293640,409.345978 
	C512.781311,405.757507 511.968018,399.734283 513.363892,393.683594 
	C515.059998,386.331421 521.660156,383.645203 528.483093,387.280792 
	C540.962646,393.930481 553.449036,400.568634 565.866760,407.332458 
	C569.987061,409.576752 572.702698,408.657745 574.760376,404.068573 
	C572.828979,402.938416 571.036194,401.799103 569.164795,400.808441 
	C552.693054,392.088623 536.198242,383.412537 519.730591,374.684967 
	C513.657837,371.466461 512.355591,367.496094 515.119141,361.075470 
	C517.794861,354.858826 521.971863,352.700073 528.251953,355.434784 
	C545.325256,362.869476 562.218018,370.718079 579.212158,378.336273 
	C580.816467,379.055511 583.019592,380.153839 584.259338,379.584290 
	C586.309326,378.642548 588.929565,376.643158 589.188538,374.792633 
	C589.416382,373.164581 587.136292,370.289673 585.279846,369.412140 
	C573.856140,364.011963 562.235962,359.027710 550.687927,353.889679 
	C549.015991,353.145813 547.380432,352.320099 545.728760,351.530640 
	C542.450989,349.963928 539.372559,348.169525 539.952637,343.805756 
	C540.548584,339.322021 542.869141,335.820160 547.338318,334.755798 
	C550.113770,334.094818 553.483704,333.841949 556.064270,334.805542 
	C568.507874,339.451904 580.773987,344.573669 593.460999,349.657654 
z"/>
<path fill="#FAFBFB" opacity="1.000000" stroke="none" 
	d="
M408.089386,779.061707 
	C408.090271,788.855774 408.090271,798.160522 408.090271,807.791016 
	C402.980194,807.791016 398.068085,807.791016 392.895264,807.791016 
	C392.895264,785.681702 392.895264,763.612000 392.895264,741.269958 
	C400.297760,740.204834 406.512543,740.436829 411.636536,747.846313 
	C418.614929,757.937317 426.999664,767.056580 434.799866,776.577393 
	C435.804474,777.803528 436.919983,778.938782 438.596985,780.794067 
	C438.596985,767.044556 438.596985,754.301086 438.596985,741.235229 
	C443.737640,741.235229 448.625977,741.235229 453.808014,741.235229 
	C453.808014,763.367615 453.808014,785.421692 453.808014,807.571533 
	C446.269012,809.124756 440.278259,808.257446 435.097687,800.965637 
	C427.126129,789.745361 417.772888,779.506653 408.088501,767.736633 
	C408.088501,772.156128 408.088501,775.364197 408.089386,779.061707 
z"/>
<path fill="#FAFBFB" opacity="1.000000" stroke="none" 
	d="
M361.667938,765.573730 
	C361.668579,757.312744 361.668579,749.488953 361.668579,741.283569 
	C366.621643,741.283569 371.519440,741.283569 376.768616,741.283569 
	C376.768616,763.236084 376.768616,785.275879 376.768616,807.631775 
	C369.709259,808.771973 363.660858,808.757874 358.480743,801.493103 
	C350.324951,790.055176 340.847900,779.559326 331.232483,767.812317 
	C331.232483,781.786926 331.232483,794.642456 331.232483,807.809082 
	C325.956451,807.809082 321.044403,807.809082 315.899231,807.809082 
	C315.899231,785.617554 315.899231,763.551392 315.899231,741.344421 
	C323.448608,740.029907 329.595612,740.589294 334.688019,747.976440 
	C341.553772,757.936096 349.834656,766.920837 357.521484,776.313049 
	C358.622528,777.658325 359.797760,778.942993 361.667297,781.094055 
	C361.667297,775.224609 361.667297,770.617798 361.667938,765.573730 
z"/>
<path fill="#F5F6F7" opacity="1.000000" stroke="none" 
	d="
M244.980560,746.920410 
	C258.770355,738.161316 272.813965,737.402649 286.982178,744.548462 
	C300.005737,751.116882 306.343140,764.910156 304.094147,780.247559 
	C302.063751,794.094238 291.465820,805.268005 277.685852,808.090698 
	C260.181519,811.676270 244.042435,805.565491 236.220154,792.390381 
	C227.212433,777.218506 230.613480,759.042419 244.980560,746.920410 
M252.845810,789.638367 
	C253.463455,790.195923 254.051987,790.790283 254.703201,791.305420 
	C262.380341,797.378662 273.655823,797.464783 281.091248,791.519836 
	C288.769745,785.380493 291.226837,773.405029 286.677246,764.293945 
	C282.439972,755.808289 272.743439,751.489441 263.094421,753.790100 
	C247.367828,757.539978 241.993912,775.179871 252.845810,789.638367 
z"/>
<path fill="#F6F7F8" opacity="1.000000" stroke="none" 
	d="
M673.009949,740.901733 
	C681.479858,741.149780 689.547607,740.709229 697.403320,741.797974 
	C711.174377,743.706482 719.051819,753.117615 718.609375,765.732605 
	C718.146790,778.921448 709.900940,787.710022 695.991882,789.053833 
	C689.773071,789.654663 683.448059,789.155518 676.717163,789.155518 
	C676.717163,795.900574 676.717163,801.649658 676.717163,807.749756 
	C671.359558,807.749756 666.455505,807.749756 661.216858,807.749756 
	C661.216858,785.794495 661.216858,763.604004 661.216858,740.901672 
	C664.963928,740.901672 668.738098,740.901672 673.009949,740.901733 
M676.603333,757.497803 
	C676.603333,763.887024 676.603333,770.276245 676.603333,777.241638 
	C682.900085,776.876892 688.751831,777.068481 694.392151,776.068054 
	C700.533936,774.978699 703.231079,770.649780 702.903137,764.478882 
	C702.604065,758.850220 699.203674,754.845642 693.343140,754.137024 
	C688.752686,753.581970 684.066711,753.604614 679.436523,753.761841 
	C678.462952,753.794861 677.547424,755.535889 676.603333,757.497803 
z"/>
<path fill="#F7F8F9" opacity="1.000000" stroke="none" 
	d="
M829.910889,750.040344 
	C829.911194,746.902527 829.911194,744.259216 829.911194,741.261963 
	C835.109802,741.261963 840.008545,741.261963 844.879944,741.261963 
	C844.879944,756.000793 845.936584,770.868347 844.601685,785.518005 
	C843.072083,802.304871 828.248047,811.563599 810.209900,808.843140 
	C795.081055,806.561523 786.580017,797.965576 785.862183,782.619507 
	C785.219788,768.886292 785.727051,755.099182 785.727051,741.154175 
	C790.769409,741.154175 795.675964,741.154175 801.096313,741.154175 
	C801.096313,753.167480 801.065796,764.934387 801.121033,776.700989 
	C801.132629,779.182739 801.202820,781.714172 801.686707,784.134583 
	C803.293518,792.172363 808.074951,796.043762 815.876831,795.906677 
	C823.522400,795.772217 828.496338,792.110168 829.186279,783.930725 
	C830.120239,772.857178 829.731750,761.672119 829.910889,750.040344 
z"/>
<path fill="#FBFCFD" opacity="1.000000" stroke="none" 
	d="
M469.923492,751.024353 
	C469.925873,747.550842 469.925873,744.572693 469.925873,741.251282 
	C486.681946,741.251282 503.240631,741.251282 520.068604,741.251282 
	C520.068604,745.116150 520.068604,748.866821 520.068604,753.161255 
	C508.747314,753.161255 497.364655,753.161255 485.630920,753.161255 
	C485.630920,758.249634 485.630920,762.806580 485.630920,767.719604 
	C495.577454,767.719604 505.501099,767.719604 515.761780,767.719604 
	C515.761780,771.801514 515.761780,775.549744 515.761780,779.877563 
	C505.942474,779.877563 495.889282,779.877563 485.590973,779.877563 
	C485.590973,785.357788 485.590973,790.264832 485.590973,795.647949 
	C497.484863,795.647949 509.232452,795.647949 521.291504,795.647949 
	C521.291504,799.863647 521.291504,803.610901 521.291504,807.741211 
	C504.400177,807.741211 487.507751,807.741211 469.921112,807.741211 
	C469.921112,789.013062 469.921112,770.266357 469.923492,751.024353 
z"/>
<path fill="#F3F5F7" opacity="1.000000" stroke="none" 
	d="
M891.222412,808.339661 
	C878.393250,810.072266 866.666870,808.373230 855.497742,801.536804 
	C857.265320,797.552185 858.909485,793.845825 860.181335,790.978699 
	C867.339478,792.908875 873.909119,795.190552 880.671021,796.295349 
	C884.219849,796.875244 888.357361,796.035339 891.779480,794.691650 
	C896.820129,792.712769 896.958862,787.524414 892.210571,784.818115 
	C889.670959,783.370544 886.660156,782.700439 883.808777,781.860291 
	C879.188599,780.498901 874.409485,779.599548 869.903442,777.944397 
	C860.919983,774.644836 856.913391,769.164307 856.913940,761.029236 
	C856.914551,752.308289 861.527222,745.450439 870.207397,742.456604 
	C883.111877,738.005737 895.690125,739.226868 908.296753,745.700439 
	C906.735901,749.670593 905.256958,753.432495 903.889893,756.909668 
	C898.186523,755.398560 892.865479,753.524719 887.387024,752.711426 
	C884.100098,752.223511 880.271484,752.717529 877.246399,754.045776 
	C875.135010,754.972961 872.825500,758.018066 872.742310,760.198669 
	C872.673157,762.011292 875.376953,764.892334 877.451782,765.642517 
	C883.519165,767.836426 889.946472,769.009705 896.119019,770.945618 
	C902.284912,772.879272 907.870361,775.811218 910.171448,782.530457 
	C913.336243,791.771606 908.773132,801.686401 899.255127,805.941528 
	C896.855896,807.014221 894.193542,807.498230 891.222412,808.339661 
z"/>
<path fill="#F4F5F7" opacity="1.000000" stroke="none" 
	d="
M578.613525,742.273315 
	C583.382629,745.207214 587.796814,747.976746 592.946838,751.207886 
	C588.766418,754.984558 585.607788,757.838196 582.059570,761.043762 
	C576.625244,755.163391 569.848633,751.644897 562.052307,753.515015 
	C557.318665,754.650574 552.242188,757.278015 548.915649,760.759888 
	C541.643005,768.372437 542.716919,782.814148 550.104553,789.926575 
	C558.880859,798.375977 570.667725,797.820251 582.210327,788.101624 
	C585.376099,791.043335 588.588684,794.028625 592.938049,798.070251 
	C587.467224,801.318909 583.017578,804.942810 577.924133,806.815796 
	C555.834595,814.938660 532.131531,802.009094 528.918335,780.828003 
	C524.748474,753.340698 547.382141,736.083557 571.956848,740.586426 
	C574.079163,740.975342 576.158997,741.595947 578.613525,742.273315 
z"/>
<path fill="#F4F5F7" opacity="1.000000" stroke="none" 
	d="
M166.860809,790.111694 
	C159.193848,772.427429 164.762772,753.546997 179.946030,744.883240 
	C195.727829,735.878052 217.450104,739.202332 227.002716,752.645630 
	C226.180374,753.232788 225.219681,753.858643 224.325912,754.568726 
	C222.123260,756.318604 220.129196,759.136597 217.710922,759.554260 
	C215.778198,759.888123 213.353928,757.302734 211.131134,756.042542 
	C201.660690,750.673096 189.318237,752.974548 183.285065,761.224243 
	C176.713226,770.210510 177.969406,783.585938 186.059067,790.760254 
	C194.092224,797.884521 206.280045,797.588196 214.718140,790.062134 
	C215.339188,789.508118 215.951950,788.944824 217.000702,787.994202 
	C220.232101,790.943420 223.490952,793.917725 226.697845,796.844604 
	C216.498199,812.915283 179.497162,815.471924 166.860809,790.111694 
z"/>
<path fill="#F5F6F7" opacity="1.000000" stroke="none" 
	d="
M640.008057,753.630371 
	C636.878540,753.633118 634.242126,753.633118 631.349792,753.633118 
	C631.349792,771.763855 631.349792,789.547729 631.349792,807.721069 
	C626.073669,807.721069 621.022522,807.721069 615.567078,807.721069 
	C615.567078,790.047974 615.567078,772.287170 615.567078,753.874573 
	C608.332703,753.874573 601.454163,753.874573 594.292969,753.874573 
	C594.292969,749.323059 594.292969,745.414612 594.292969,741.195007 
	C613.483826,741.195007 632.710083,741.195007 652.085938,741.195007 
	C652.085938,745.272461 652.085938,749.209656 652.085938,753.627686 
	C648.066895,753.627686 644.283997,753.627686 640.008057,753.630371 
z"/>
<path fill="#F4F6F7" opacity="1.000000" stroke="none" 
	d="
M776.739380,808.047729 
	C760.963989,808.035522 745.664917,808.035522 730.128296,808.035522 
	C730.128296,785.706482 730.128296,763.633301 730.128296,741.220764 
	C735.065796,741.220764 740.117859,741.220764 745.709106,741.220764 
	C745.709106,759.123901 745.709106,777.020813 745.709106,795.358154 
	C756.981689,795.358154 767.730896,795.358154 779.829590,795.358154 
	C778.871033,800.016052 778.043335,804.038025 776.739380,808.047729 
z"/>
<path fill="#040407" opacity="1.000000" stroke="none" 
	d="
M252.588501,789.379272 
	C241.993912,775.179871 247.367828,757.539978 263.094421,753.790100 
	C272.743439,751.489441 282.439972,755.808289 286.677246,764.293945 
	C291.226837,773.405029 288.769745,785.380493 281.091248,791.519836 
	C273.655823,797.464783 262.380341,797.378662 254.703201,791.305420 
	C254.051987,790.790283 253.463455,790.195923 252.588501,789.379272 
z"/>
<path fill="#050508" opacity="1.000000" stroke="none" 
	d="
M676.604248,756.993896 
	C677.547424,755.535889 678.462952,753.794861 679.436523,753.761841 
	C684.066711,753.604614 688.752686,753.581970 693.343140,754.137024 
	C699.203674,754.845642 702.604065,758.850220 702.903137,764.478882 
	C703.231079,770.649780 700.533936,774.978699 694.392151,776.068054 
	C688.751831,777.068481 682.900085,776.876892 676.603333,777.241638 
	C676.603333,770.276245 676.603333,763.887024 676.604248,756.993896 
z"/>
</svg>